<?xml version="1.0" encoding="UTF-8"?>
<svg width="512px" height="512px" viewBox="0 0 512 512" version="1.1" xmlns="http://www.w3.org/2000/svg" xmlns:xlink="http://www.w3.org/1999/xlink">
    <!-- Generator: Sketch 50.2 (55047) - http://www.bohemiancoding.com/sketch -->
    <title>capsule-blue-front</title>
    <desc>Created with Sketch.</desc>
    <defs></defs>
    <g id="capsule-blue-front" stroke="none" stroke-width="1" fill="none" fill-rule="evenodd">
        <circle id="Oval" fill="#8A8A8A" opacity="0.0885044643" cx="254" cy="256" r="256"></circle>
        <path d="M-2,256 C-2,281.957383 112.615104,303 254,303 C395.38484,303 509.999909,281.9574 510,256.000031 C509.999983,397.384913 395.384886,512 254,512 C112.615104,512 -2,397.384896 -2,256 Z" id="Combined-Shape" fill="#5BB7EF" opacity="0.5"></path>
        <circle id="Oval" stroke="#979797" opacity="0.203850446" cx="254" cy="256" r="256"></circle>
        <path d="M254,512 C112.615104,512 -2,397.384896 -2,256 C-2,114.615104 112.615104,0 254,0 C395.384896,0 510,114.615104 510,256 C510,397.384896 395.384896,512 254,512 Z M254,491 C383.786916,491 489,385.786916 489,256 C489,126.213084 383.786916,21 254,21 C124.213084,21 19,126.213084 19,256 C19,385.786916 124.213084,491 254,491 Z" id="Combined-Shape" fill="#FFFFFF" opacity="0.4"></path>
        <circle id="Oval-2" fill="#FFFFFF" opacity="0.4" cx="122" cy="122" r="53"></circle>
        <path d="M306.583094,404.703061 C341.186922,414.024529 364.548859,418.94948 376.668904,419.477916 C388.323613,419.986063 408.773273,416.194425 438.017883,408.103002 L438.017878,408.102985 C447.093211,405.592014 456.549502,410.607276 459.561428,419.528876 L459.561428,419.528876 C462.458064,428.108973 457.850708,437.412702 449.270611,440.309338 C449.006222,440.398595 448.739597,440.481089 448.470998,440.556739 C418.238176,449.07164 393.297774,452.673942 373.649787,451.363636 C353.821022,450.041273 330.210233,444.563551 302.81742,434.930471 L302.817424,434.930461 C294.668543,432.064789 289.629084,423.895694 290.724394,415.327343 L290.724394,415.327343 C291.611417,408.388371 297.95564,403.482297 304.894612,404.36932 C305.464356,404.442152 306.028486,404.553653 306.583097,404.703052 Z" id="Rectangle-2" fill="#FFFFFF" opacity="0.599999964" transform="translate(375.501412, 427.945728) rotate(-38.000000) translate(-375.501412, -427.945728) "></path>
        <circle id="Oval-2-Copy-2" fill="#FFFFFF" opacity="0.6" cx="449.5" cy="342.5" r="14.5"></circle>
    </g>
</svg>